<svg xmlns="http://www.w3.org/2000/svg" width="80.385" height="80.385"><path fill="#FAFDFE" d="M40.192 0c-22.197 0-40.192 17.995-40.192 40.192 0 22.198 17.995 40.192 40.192 40.192s40.193-17.994 40.193-40.192c0-22.197-17.996-40.192-40.193-40.192zm9.136 31.217l-.475 6.189h-6.348v21.504h-8.019v-21.503999999999998h-4.278v-6.189h4.278v-4.159c0-1.83.048-4.659 1.379-6.409 1.402-1.854 3.328-3.114 6.64-3.114 5.396 0 7.671.769 7.671.769l-1.07 6.339s-1.782-.515-3.446-.515-3.154.594-3.154 2.258v4.833h6.822z"/></svg>