<svg xmlns="http://www.w3.org/2000/svg" width="80.385" height="80.385"><path fill="#FAFDFE" d="M40.192 0c-22.197 0-40.192 17.995-40.192 40.192 0 22.198 17.995 40.193 40.192 40.193s40.193-17.995 40.193-40.193c0-22.197-17.995-40.192-40.193-40.192zm21.366 31.455c.019.42.028.843.028 1.268 0 12.945-9.854 27.873-27.873 27.873-5.533 0-10.683-1.621-15.019-4.401.767.091 1.547.138 2.337.138 4.593 0 8.815-1.566 12.167-4.195-4.285-.078-7.904-2.91-9.15-6.802.599.114 1.212.175 1.844.175.892 0 1.758-.119 2.581-.344-4.481-.899-7.858-4.859-7.858-9.605l.001-.124c1.319.734 2.83 1.174 4.437 1.226-2.63-1.756-4.359-4.755-4.359-8.154 0-1.795.484-3.478 1.327-4.925 4.832 5.927 12.051 9.828 20.193 10.236-.168-.717-.255-1.465-.255-2.232 0-5.41 4.386-9.796 9.797-9.796 2.817 0 5.362 1.19 7.15 3.093 2.231-.439 4.328-1.254 6.221-2.377-.731 2.288-2.284 4.207-4.307 5.42 1.981-.236 3.87-.763 5.627-1.542-1.314 1.961-2.977 3.686-4.889 5.068z"/></svg>