<svg xmlns="http://www.w3.org/2000/svg" width="80.385" height="80.385"><g fill="#FAFDFE"><path d="M42.795 34.805v-.094l-.062.094h.062zM40.192 0c-22.197 0-40.192 17.995-40.192 40.192 0 22.198 17.995 40.193 40.192 40.193 22.198 0 40.193-17.995 40.193-40.193 0-22.197-17.995-40.192-40.193-40.192zm-11.838 58.718h-9.297v-27.97h9.297v27.97zm-4.647-31.788h-.062c-3.119 0-5.137-2.148-5.137-4.833 0-2.744 2.078-4.833 5.259-4.833s5.138 2.089 5.198 4.833c0 2.685-2.017 4.833-5.258 4.833zm38.169 31.788h-9.296v-14.963c0-3.76-1.346-6.325-4.71-6.325-2.567 0-4.099 1.729-4.77 3.4-.245.597-.306 1.432-.306 2.268v15.62h-9.297s.121-25.347 0-27.97h9.297v3.963c1.234-1.906 3.443-4.619 8.378-4.619 6.117 0 10.703 3.997 10.703 12.588v16.038z"/></g></svg>