<svg xmlns="http://www.w3.org/2000/svg" xmlns:xlink="http://www.w3.org/1999/xlink" width="119" height="119"><defs><rect id="a" x="-68.995" y="-67.634" width="282.743" height="255.447"/></defs><clipPath id="b"><use xlink:href="#a" overflow="visible"/></clipPath><g clip-path="url(#b)"><defs><rect id="c" x="-68.995" y="-67.634" width="282.743" height="255.447"/></defs><clipPath id="d"><use xlink:href="#c" overflow="visible"/></clipPath><path clip-path="url(#d)" fill="#0089CF" d="M68.531 19.204h8.077c0 5.008-3.545 8.227-8.077 8.513v7.879c9.577-.525 16.711-6.959 16.711-18.951v-14.143h-16.711v16.702z"/><path clip-path="url(#d)" fill="#0089CF" d="M90.811 19.204h8.076c0 5.008-3.545 8.227-8.076 8.513v7.879c9.576-.525 16.713-6.959 16.713-18.951v-14.143h-16.713v16.702z"/></g><path clip-path="url(#b)" fill="#231F20" d="M45.492 45.799h-17.129l8.563-24.742 8.566 24.742zm26.503 26.147l-24.592-69.444h-20.951l-24.592 69.444h17.451l4.254-12.287h26.724l4.253 12.287h17.453z"/><path d="M2.915 98.941h-2.329l3.995-11.338h2.499l3.842 11.338h-2.329l-.765-2.413h-4.148l-.765 2.413zm4.42-4.062l-1.581-5.082-1.564 5.082h3.145zM12.078 93.129c.102-.799.272-1.225.595-1.615.595-.697 1.632-1.07 2.992-1.07 1.7 0 2.838.51 3.297 1.479.221.425.306.969.306 1.802v3.468c0 .985.034 1.24.272 1.75h-2.006l-.238-.765c-.884.681-1.7.986-2.652.986-1.683 0-3.06-1.14-3.06-2.533 0-.917.544-1.7 1.547-2.176.612-.306 1.462-.51 2.736-.663.952-.102 1.292-.322 1.292-.832 0-.629-.612-1.071-1.513-1.071-.969 0-1.564.442-1.632 1.241h-1.936zm5.168 1.461c-.391.256-.595.323-1.309.494-1.7.407-2.227.747-2.227 1.428 0 .594.578 1.002 1.445 1.002.612 0 1.173-.17 1.581-.492.374-.289.51-.629.51-1.293v-1.139zM23.4 87.604v11.338h-2.074v-11.338h2.074zM29.333 90.664v1.309h-1.564v4.199c0 .629.034.815.17.985.136.187.425.289.765.289l.578-.017.17-.018v1.529h-1.479c-.765 0-.918-.017-1.207-.136-.561-.221-.867-.612-.986-1.224-.068-.322-.085-.663-.085-1.41v-4.199h-1.156v-1.309h1.156v-2.752h2.074v2.754h1.564zM38.852 94.795c0 2.566-1.802 4.368-4.352 4.368-2.431 0-4.232-1.853-4.232-4.368 0-2.517 1.802-4.352 4.3-4.352 2.482 0 4.284 1.835 4.284 4.352zm-6.459-.035c0 1.666.85 2.754 2.176 2.754 1.292 0 2.159-1.088 2.159-2.719 0-1.615-.867-2.703-2.159-2.703-1.292 0-2.176 1.088-2.176 2.668zM53.896 87.604v6.443c0 1.903-.085 2.516-.476 3.195-.68 1.258-2.074 1.921-4.062 1.921-2.108 0-3.586-.765-4.199-2.192-.255-.629-.323-1.225-.323-2.924v-6.443h2.244v6.256c0 1.428.068 1.972.272 2.396.289.629 1.088 1.037 2.023 1.037 1.02 0 1.819-.459 2.074-1.207.153-.408.204-.951.204-2.227v-6.256h2.243zM58.266 90.664v1.156c.765-1.004 1.428-1.377 2.431-1.377 1.071 0 2.074.577 2.533 1.461.238.426.34.986.34 1.717v5.32h-2.074v-4.775c0-.664-.051-.953-.221-1.225-.272-.441-.714-.68-1.275-.68-1.105 0-1.734.748-1.734 2.057v4.623h-2.074v-8.277h2.074zM67.786 87.553v1.887h-2.074v-1.887h2.074zm0 3.111v8.277h-2.074v-8.277h2.074zM71.084 90.664l1.751 5.848 1.683-5.848h2.091l-2.737 8.277h-2.09l-2.89-8.277h2.192zM79.346 95.287c.154 1.445.867 2.227 2.041 2.227.815 0 1.41-.356 1.784-1.054h2.142c-.492 1.666-2.006 2.703-3.893 2.703-2.465 0-4.198-1.802-4.198-4.352 0-2.601 1.632-4.368 4.028-4.368 2.533 0 4.097 1.818 4.148 4.844h-6.052zm3.91-1.359c-.152-1.207-.833-1.887-1.938-1.887-1.055 0-1.751.68-1.921 1.887h3.859zM89.189 90.664v1.139c.561-.884 1.24-1.309 2.057-1.309.152 0 .271 0 .544.033v1.785l-.356-.018c-1.395 0-2.244.936-2.244 2.448v4.198h-2.074v-8.277h2.073zM97.858 93.129c-.204-.782-.731-1.156-1.649-1.156-.883 0-1.495.391-1.495.951 0 .256.17.477.442.596.306.136.68.221 1.836.425 1.189.204 1.699.374 2.158.731.492.408.781 1.037.781 1.784 0 1.615-1.41 2.703-3.518 2.703-2.227 0-3.587-1.037-3.773-2.873h1.903c.17.918.765 1.343 1.853 1.343.952 0 1.581-.408 1.581-1.037 0-.51-.306-.696-1.411-.883-1.309-.238-2.209-.511-2.736-.851-.663-.425-1.003-1.037-1.003-1.751 0-1.563 1.376-2.668 3.314-2.668 2.022 0 3.366 1.02 3.536 2.686h-1.819zM103.553 87.553v1.887h-2.073v-1.887h2.073zm0 3.111v8.277h-2.073v-8.277h2.073zM109.486 90.664v1.309h-1.564v4.199c0 .629.034.815.17.985.137.187.426.289.766.289l.578-.017.17-.018v1.529h-1.479c-.765 0-.918-.017-1.206-.136-.562-.221-.867-.612-.986-1.224-.068-.322-.086-.663-.086-1.41v-4.199h-1.155v-1.309h1.155v-2.752h2.074v2.754h1.563zM118.394 90.664l-3.009 8.906c-.34.986-.714 1.547-1.275 1.854-.476.255-.696.289-1.784.289h-1.054v-1.615h.611c.477 0 .748-.051.952-.204.289-.187.476-.577.476-.985 0-.307-.187-1.055-.391-1.615l-2.566-6.629h2.26l1.904 6.102 1.751-6.102h2.125z"/><path fill="#9E9A97" d="M1.793 103.604h3.875c1.564 0 2.142.086 2.89.442 1.768.833 2.839 2.856 2.839 5.372 0 2.719-1.19 4.674-3.179 5.27-.663.203-1.207.254-2.363.254h-4.062v-11.338zm4.029 9.553c1.139 0 1.598-.119 2.176-.544.782-.561 1.156-1.598 1.156-3.094 0-1.938-.629-3.298-1.785-3.824-.544-.256-.918-.307-2.022-.307h-1.31v7.769h1.785z"/><path fill="#9E9A97" d="M14.9 111.287c.153 1.445.867 2.227 2.04 2.227.816 0 1.411-.356 1.785-1.054h2.142c-.493 1.666-2.005 2.703-3.893 2.703-2.464 0-4.198-1.802-4.198-4.352 0-2.601 1.632-4.368 4.028-4.368 2.533 0 4.097 1.818 4.148 4.844h-6.052zm3.91-1.359c-.153-1.207-.833-1.887-1.938-1.887-1.054 0-1.75.68-1.92 1.887h3.858z"/><path fill="#9E9A97" d="M27.292 109.129c-.204-.782-.731-1.156-1.649-1.156-.884 0-1.496.391-1.496.951 0 .256.17.477.442.596.306.136.68.221 1.836.425 1.19.204 1.7.374 2.159.731.493.408.782 1.037.782 1.784 0 1.615-1.411 2.703-3.519 2.703-2.227 0-3.586-1.037-3.773-2.873h1.904c.17.918.765 1.343 1.853 1.343.952 0 1.581-.408 1.581-1.037 0-.51-.306-.696-1.411-.883-1.309-.238-2.209-.511-2.736-.851-.663-.425-1.003-1.037-1.003-1.751 0-1.563 1.377-2.668 3.314-2.668 2.023 0 3.366 1.02 3.536 2.686h-1.82z"/><path fill="#9E9A97" d="M32.987 103.553v1.887h-2.074v-1.887h2.074zm0 3.111v8.277h-2.074v-8.277h2.074z"/><path fill="#9E9A97" d="M42.812 106.664v7.326c0 1.274-.085 1.699-.493 2.244-.663.918-1.853 1.428-3.383 1.428-1.258 0-2.261-.323-2.958-.952-.425-.374-.629-.782-.765-1.462h2.108c.17.646.646.935 1.496.935.816 0 1.411-.272 1.7-.799.187-.34.238-.646.238-1.394v-.766c-.595.697-1.377 1.055-2.346 1.055-2.21 0-3.706-1.564-3.706-3.876 0-2.329 1.479-3.96 3.604-3.96 1.105 0 2.04.441 2.583 1.223v-1.002h1.922zm-5.983 3.756c0 1.377.782 2.295 1.955 2.295 1.275 0 2.04-.867 2.04-2.295 0-1.377-.799-2.328-1.989-2.328-1.224 0-2.006.918-2.006 2.328z"/><path fill="#9E9A97" d="M47.029 106.664v1.156c.765-1.004 1.428-1.377 2.431-1.377 1.071 0 2.074.577 2.533 1.461.238.426.34.986.34 1.717v5.32h-2.074v-4.775c0-.664-.051-.953-.221-1.225-.272-.441-.714-.68-1.275-.68-1.105 0-1.734.748-1.734 2.057v4.623h-2.074v-8.277h2.074z"/><path fill="#9E9A97" d="M58.861 103.604h8.108v1.785h-5.864v2.924h5.031v1.785h-5.031v4.844h-2.244v-11.338z"/><path fill="#9E9A97" d="M68.041 109.129c.102-.799.272-1.225.595-1.615.595-.697 1.632-1.07 2.992-1.07 1.7 0 2.839.51 3.298 1.479.221.425.306.969.306 1.802v3.468c0 .985.034 1.24.272 1.75h-2.006l-.238-.765c-.884.681-1.7.986-2.652.986-1.683 0-3.06-1.14-3.06-2.533 0-.917.544-1.7 1.547-2.176.612-.306 1.462-.51 2.736-.663.952-.102 1.292-.322 1.292-.832 0-.629-.611-1.071-1.512-1.071-.969 0-1.564.442-1.632 1.241h-1.938zm5.168 1.461c-.391.256-.595.323-1.309.494-1.7.407-2.227.747-2.227 1.428 0 .594.578 1.002 1.445 1.002.612 0 1.173-.17 1.581-.492.374-.289.51-.629.51-1.293v-1.139z"/><path fill="#9E9A97" d="M84.734 112.018c-.289 1.955-1.717 3.146-3.773 3.146-2.38 0-4.08-1.802-4.08-4.335s1.7-4.385 4.046-4.385c1.938 0 3.264 1.088 3.723 3.025h-2.022c-.272-.918-.816-1.377-1.648-1.377-1.19 0-1.973 1.104-1.973 2.754 0 1.648.766 2.668 1.988 2.668.936 0 1.547-.526 1.752-1.496h1.987z"/><path fill="#9E9A97" d="M90.141 106.664v1.309h-1.564v4.199c0 .629.035.815.171.985.136.187.425.289.765.289l.578-.017.17-.018v1.529h-1.479c-.766 0-.918-.017-1.207-.136-.561-.221-.867-.612-.986-1.224-.068-.322-.085-.663-.085-1.41v-4.199h-1.155v-1.309h1.155v-2.754h2.073v2.754h1.564z"/><path fill="#9E9A97" d="M99.66 110.795c0 2.566-1.802 4.368-4.352 4.368-2.431 0-4.232-1.853-4.232-4.368 0-2.517 1.802-4.352 4.301-4.352 2.481 0 4.283 1.835 4.283 4.352zm-6.459-.035c0 1.666.85 2.754 2.176 2.754 1.291 0 2.158-1.088 2.158-2.719 0-1.615-.867-2.703-2.158-2.703-1.293 0-2.176 1.088-2.176 2.668z"/><path fill="#9E9A97" d="M103.451 106.664v1.139c.561-.884 1.241-1.309 2.057-1.309.153 0 .272 0 .545.033v1.785l-.357-.018c-1.395 0-2.244.936-2.244 2.448v4.198h-2.074v-8.277h2.073z"/><path fill="#9E9A97" d="M114.857 106.664l-3.008 8.906c-.34.986-.715 1.547-1.275 1.854-.477.255-.697.289-1.785.289h-1.054v-1.615h.612c.476 0 .748-.051.951-.204.289-.187.477-.577.477-.985 0-.307-.188-1.055-.391-1.615l-2.567-6.629h2.261l1.904 6.102 1.75-6.102h2.125z"/></svg>