<svg xmlns="http://www.w3.org/2000/svg" width="119.6" height="120.022"><path fill="#010101" d="M0 60.011c0-33.143 26.773-60.011 59.8-60.011s59.8 26.868 59.8 60.011c0 33.144-26.773 60.011-59.8 60.011s-59.8-26.867-59.8-60.011"/><path fill="#fff" d="M19.936 46.461v-21.15h4.776c6.007 0 10.877 4.887 10.877 10.916 0 6.029-4.87 10.916-10.877 10.916-.906 0-.906-1.364 0-1.364 5.257 0 9.518-4.277 9.518-9.552 0-5.276-4.261-9.552-9.518-9.552h-3.417v19.786c0 .909-1.359.909-1.359 0"/><path fill="#fff" d="M62.974 26.075v20.468c0 .909-1.359.909-1.359 0v-20.468c0-.908 1.359-.908 1.359 0"/><path fill="#fff" d="M47.189 26.675h-8.953v19.104h8.953c.906 0 .906 1.364 0 1.364h-10.312v-21.832h10.312c.906 0 .906 1.364 0 1.364"/><path fill="#fff" d="M40.717 35.545h4.434c.906 0 .906 1.364 0 1.364h-4.434c-.906 0-.906-1.364 0-1.364"/><path fill="#fff" d="M19.936 70.245v-21.15h4.776c6.007 0 10.877 4.887 10.877 10.916 0 6.029-4.87 10.916-10.877 10.916-.906 0-.906-1.364 0-1.364 5.257 0 9.518-4.277 9.518-9.552 0-5.276-4.261-9.552-9.518-9.552h-3.417v19.786c0 .909-1.359.909-1.359 0"/><path fill="#fff" d="M38.236 49.777v20.468c0 .909-1.359.909-1.359 0v-20.468c0-.909 1.359-.909 1.359 0"/><path fill="#fff" d="M76.086 49.777v20.468c0 .91-1.359.91-1.359 0v-20.468c.001-.909 1.359-.909 1.359 0"/><path fill="#fff" d="M66.482 49.095c3.191 0 5.778 2.596 5.778 5.799 0 2.754-1.912 5.058-4.476 5.651-.883.204-1.188-1.125-.306-1.329 1.962-.453 3.423-2.217 3.423-4.322 0-2.449-1.978-4.435-4.419-4.435h-3.4v9.27l9.999 10.034c.641.643-.32 1.607-.961.964l-9.038-9.07v8.588c0 .909-1.359.909-1.359 0v-21.15h4.759z"/><path fill="#fff" d="M88.536 70.927c-6.008 0-10.878-4.887-10.878-10.916 0-6.029 4.87-10.916 10.878-10.916.906 0 .906 1.364 0 1.364-5.257 0-9.519 4.277-9.519 9.552 0 5.276 4.262 9.552 9.519 9.552.906 0 .906 1.364 0 1.364"/><path fill="#fff" d="M40.982 65.261c0 2.523 2.038 4.569 4.553 4.569 2.562 0 4.841-2.092 4.841-4.569 0-6.776-10.484-3.357-10.484-10.771 0-3.276 2.378-5.662 5.643-5.662 2.84 0 5.211 2.01 5.781 4.689.189.89-1.14 1.174-1.329.285-.439-2.063-2.266-3.61-4.452-3.61-2.515 0-4.284 1.775-4.284 4.298 0 6.099 10.484 2.871 10.484 10.771 0 3.323-2.984 5.932-6.2 5.932-3.265 0-5.912-2.656-5.912-5.932 0-.909 1.359-.909 1.359 0"/><path fill="#fff" d="M56.438 50.459v19.786c0 .909-1.359.909-1.359 0v-19.786h-3.4c-.906 0-.906-1.364 0-1.364h8.159c.906 0 .906 1.364 0 1.364h-3.4z"/><path fill="#fff" d="M95.801 50.459v19.786c0 .909-1.359.909-1.359 0v-19.786h-3.4c-.906 0-.906-1.364 0-1.364h8.159c.906 0 .906 1.364 0 1.364h-3.4z"/><path fill="#fff" d="M47.731 73.479v19.786h6.507c.906 0 .906 1.364 0 1.364h-7.866v-21.15c0-.909 1.359-.909 1.359 0"/><path fill="#fff" d="M21.295 83.031h8.921v-9.552c0-.909 1.359-.909 1.359 0v20.468c0 .909-1.359.909-1.359 0v-9.552h-8.921v9.552c0 .909-1.359.909-1.359 0v-20.468c0-.909 1.359-.909 1.359 0v9.552z"/><path fill="#fff" d="M69.611 73.479v20.468c0 .909-1.359.909-1.359 0v-20.468c0-.909 1.359-.909 1.359 0"/><path fill="#fff" d="M99.665 73.479v20.468c0 .909-1.359.909-1.359 0v-20.468c0-.909 1.359-.909 1.359 0"/><path fill="#fff" d="M56.129 88.963c0 2.523 2.038 4.568 4.552 4.568 2.563 0 4.842-2.091 4.842-4.568 0-6.775-10.484-3.357-10.484-10.771 0-3.276 2.378-5.662 5.643-5.662 2.84 0 5.211 2.01 5.781 4.689.189.89-1.14 1.174-1.329.285-.439-2.063-2.266-3.61-4.453-3.61-2.514 0-4.283 1.775-4.283 4.298 0 6.099 10.484 2.871 10.484 10.771 0 3.323-2.984 5.932-6.201 5.932-3.264 0-5.911-2.656-5.911-5.932.001-.909 1.359-.909 1.359 0"/><path fill="#fff" d="M43.924 74.161h-8.953v19.104h8.953c.906 0 .906 1.364 0 1.364h-10.312v-21.833h10.312c.907 0 .907 1.365 0 1.365"/><path fill="#fff" d="M37.453 83.031h4.434c.906 0 .906 1.364 0 1.364h-4.434c-.906 0-.906-1.364 0-1.364"/><path fill="#fff" d="M96.711 73.936l-7.133 7.921c-.608.674-1.616-.241-1.008-.915l7.133-7.92c.607-.675 1.615.24 1.008.914"/><path fill="#fff" d="M86.688 73.479v9.952l9.999 10.034c.641.643-.32 1.607-.961.964l-9.038-9.07v8.588c0 .909-1.359.909-1.359 0v-20.468c.001-.909 1.359-.909 1.359 0"/><path fill="#fff" d="M77.621 35.627h9.036v.682c0 6.166-4.981 11.164-11.125 11.164s-11.125-4.997-11.125-11.163c0-6.169 4.951-11.164 11.237-11.164 2.764 0 5.645 1.153 7.754 3.27.641.643-.32 1.607-.961.964-1.854-1.861-4.39-2.87-6.793-2.87-5.542 0-9.878 4.391-9.878 9.8 0 5.412 4.372 9.8 9.766 9.8 5.165 0 9.394-4.024 9.743-9.118h-7.654c-.906 0-.906-1.365 0-1.365"/><path fill="#fff" d="M49.456 41.56c0 2.523 2.038 4.569 4.553 4.569 2.562 0 4.841-2.092 4.841-4.569 0-6.776-10.484-3.357-10.484-10.771 0-3.276 2.378-5.662 5.642-5.662 2.841 0 5.212 2.01 5.782 4.689.189.889-1.14 1.174-1.329.285-.439-2.063-2.266-3.61-4.453-3.61-2.514 0-4.283 1.775-4.283 4.298 0 6.099 10.484 2.87 10.484 10.771 0 3.323-2.984 5.932-6.2 5.932-3.265 0-5.912-2.656-5.912-5.932 0-.909 1.359-.909 1.359 0"/><path fill="#fff" d="M71.636 93.947v-20.468c0-.668.914-1.005 1.286-.307l8.994 17.907v-17.557c0-.909 1.359-.909 1.359 0v20.425c0 .654-.903 1.031-1.286.307l-8.994-17.907v17.6c0 .909-1.359.909-1.359 0"/><path fill="#fff" d="M88.025 46.54v-20.468c0-.668.914-1.005 1.287-.307l8.993 17.907v-17.557c0-.909 1.359-.909 1.359 0v20.425c0 .654-.903 1.031-1.286.307l-8.993-17.907v17.6c0 .909-1.36.909-1.36 0"/></svg>